<svg xmlns="http://www.w3.org/2000/svg" xmlns:xlink="http://www.w3.org/1999/xlink" width="500" zoomAndPan="magnify" viewBox="0 0 375 374.999991" height="500" preserveAspectRatio="xMidYMid meet" version="1.0"><defs><g/><clipPath id="205281921f"><path d="M 110.8125 140.144531 L 215.8125 140.144531 L 215.8125 231.644531 L 110.8125 231.644531 Z M 110.8125 140.144531 " clip-rule="nonzero"/></clipPath></defs><g fill="#ffffff" fill-opacity="1"><g transform="translate(38.033858, 144.825615)"><g><path d="M -6.078125 -12.640625 C -6.117188 -12.515625 -6.191406 -12.425781 -6.296875 -12.375 C -6.410156 -12.320312 -6.523438 -12.316406 -6.640625 -12.359375 L -6.78125 -12.40625 C -6.988281 -12.46875 -7.1875 -12.453125 -7.375 -12.359375 C -7.5625 -12.265625 -7.691406 -12.113281 -7.765625 -11.90625 L -8.96875 -8.140625 C -9.03125 -7.941406 -9.007812 -7.742188 -8.90625 -7.546875 C -8.8125 -7.347656 -8.660156 -7.21875 -8.453125 -7.15625 L -7.328125 -6.796875 C -7.109375 -6.722656 -6.90625 -6.738281 -6.71875 -6.84375 C -6.53125 -6.945312 -6.40625 -7.097656 -6.34375 -7.296875 L -5.140625 -11.0625 C -4.992188 -11.507812 -4.765625 -11.910156 -4.453125 -12.265625 C -4.140625 -12.617188 -3.78125 -12.898438 -3.375 -13.109375 C -2.96875 -13.316406 -2.53125 -13.441406 -2.0625 -13.484375 C -1.601562 -13.535156 -1.144531 -13.488281 -0.6875 -13.34375 L 0.421875 -13 C 0.898438 -12.84375 1.3125 -12.609375 1.65625 -12.296875 C 2.007812 -11.992188 2.289062 -11.640625 2.5 -11.234375 C 2.707031 -10.828125 2.832031 -10.390625 2.875 -9.921875 C 2.925781 -9.453125 2.878906 -8.992188 2.734375 -8.546875 L 1.53125 -4.78125 C 1.382812 -4.320312 1.15625 -3.914062 0.84375 -3.5625 C 0.539062 -3.21875 0.1875 -2.941406 -0.21875 -2.734375 C -0.625 -2.523438 -1.054688 -2.394531 -1.515625 -2.34375 C -1.984375 -2.289062 -2.457031 -2.34375 -2.9375 -2.5 L -3.078125 -2.53125 C -3.179688 -2.570312 -3.257812 -2.648438 -3.3125 -2.765625 C -3.375 -2.878906 -3.382812 -2.988281 -3.34375 -3.09375 L -2.78125 -4.875 C -2.738281 -5 -2.660156 -5.085938 -2.546875 -5.140625 C -2.441406 -5.191406 -2.335938 -5.195312 -2.234375 -5.15625 L -2.09375 -5.125 C -1.875 -5.050781 -1.664062 -5.066406 -1.46875 -5.171875 C -1.28125 -5.273438 -1.15625 -5.425781 -1.09375 -5.625 L 0.109375 -9.390625 C 0.179688 -9.597656 0.164062 -9.796875 0.0625 -9.984375 C -0.0390625 -10.171875 -0.203125 -10.300781 -0.421875 -10.375 L -1.53125 -10.71875 C -1.75 -10.789062 -1.945312 -10.773438 -2.125 -10.671875 C -2.300781 -10.578125 -2.425781 -10.425781 -2.5 -10.21875 L -3.703125 -6.453125 C -3.847656 -5.992188 -4.070312 -5.585938 -4.375 -5.234375 C -4.6875 -4.890625 -5.046875 -4.613281 -5.453125 -4.40625 C -5.867188 -4.195312 -6.3125 -4.066406 -6.78125 -4.015625 C -7.257812 -3.972656 -7.722656 -4.023438 -8.171875 -4.171875 L -9.296875 -4.53125 C -9.765625 -4.675781 -10.171875 -4.90625 -10.515625 -5.21875 C -10.867188 -5.53125 -11.148438 -5.890625 -11.359375 -6.296875 C -11.566406 -6.703125 -11.691406 -7.132812 -11.734375 -7.59375 C -11.785156 -8.0625 -11.738281 -8.523438 -11.59375 -8.984375 L -10.390625 -12.75 C -10.242188 -13.195312 -10.015625 -13.597656 -9.703125 -13.953125 C -9.398438 -14.304688 -9.046875 -14.585938 -8.640625 -14.796875 C -8.234375 -15.003906 -7.796875 -15.128906 -7.328125 -15.171875 C -6.867188 -15.222656 -6.40625 -15.175781 -5.9375 -15.03125 L -5.796875 -14.984375 C -5.679688 -14.941406 -5.59375 -14.867188 -5.53125 -14.765625 C -5.476562 -14.660156 -5.46875 -14.550781 -5.5 -14.4375 Z M -6.078125 -12.640625 "/></g></g></g><g fill="#ffffff" fill-opacity="1"><g transform="translate(44.23438, 126.737474)"><g><path d="M -8.359375 -14.15625 C -8.140625 -14.59375 -7.847656 -14.960938 -7.484375 -15.265625 C -7.128906 -15.566406 -6.734375 -15.789062 -6.296875 -15.9375 C -5.867188 -16.082031 -5.421875 -16.140625 -4.953125 -16.109375 C -4.492188 -16.085938 -4.046875 -15.96875 -3.609375 -15.75 L -2.546875 -15.234375 C -2.117188 -15.023438 -1.75 -14.738281 -1.4375 -14.375 C -1.132812 -14.007812 -0.90625 -13.613281 -0.75 -13.1875 C -0.601562 -12.757812 -0.539062 -12.3125 -0.5625 -11.84375 C -0.59375 -11.375 -0.71875 -10.921875 -0.9375 -10.484375 L -3.03125 -6.25 L 1.5 -3.984375 C 1.601562 -3.941406 1.675781 -3.863281 1.71875 -3.75 C 1.757812 -3.632812 1.753906 -3.523438 1.703125 -3.421875 L 0.859375 -1.71875 C 0.804688 -1.613281 0.71875 -1.539062 0.59375 -1.5 C 0.476562 -1.46875 0.367188 -1.472656 0.265625 -1.515625 L -11.296875 -7.265625 C -11.398438 -7.316406 -11.46875 -7.398438 -11.5 -7.515625 C -11.539062 -7.628906 -11.535156 -7.738281 -11.484375 -7.84375 Z M -4.828125 -13.296875 C -5.015625 -13.398438 -5.210938 -13.414062 -5.421875 -13.34375 C -5.628906 -13.269531 -5.785156 -13.132812 -5.890625 -12.9375 L -7.984375 -8.703125 L -5.515625 -7.46875 L -3.421875 -11.703125 C -3.316406 -11.898438 -3.296875 -12.101562 -3.359375 -12.3125 C -3.429688 -12.519531 -3.566406 -12.675781 -3.765625 -12.78125 Z M -4.828125 -13.296875 "/></g></g></g><g fill="#ffffff" fill-opacity="1"><g transform="translate(53.087165, 109.788853)"><g><path d="M -6.109375 -15.25 C -5.828125 -15.644531 -5.488281 -15.960938 -5.09375 -16.203125 C -4.695312 -16.453125 -4.269531 -16.613281 -3.8125 -16.6875 C -3.363281 -16.769531 -2.910156 -16.765625 -2.453125 -16.671875 C -2.003906 -16.578125 -1.582031 -16.390625 -1.1875 -16.109375 L 4.296875 -12.265625 C 4.691406 -11.984375 5.007812 -11.644531 5.25 -11.25 C 5.5 -10.851562 5.660156 -10.429688 5.734375 -9.984375 C 5.816406 -9.535156 5.8125 -9.082031 5.71875 -8.625 C 5.625 -8.164062 5.4375 -7.738281 5.15625 -7.34375 L 2.90625 -4.125 C 2.613281 -3.71875 2.269531 -3.394531 1.875 -3.15625 C 1.476562 -2.914062 1.050781 -2.753906 0.59375 -2.671875 C 0.144531 -2.585938 -0.300781 -2.59375 -0.75 -2.6875 C -1.207031 -2.78125 -1.632812 -2.96875 -2.03125 -3.25 L -7.515625 -7.09375 C -7.910156 -7.375 -8.226562 -7.710938 -8.46875 -8.109375 C -8.71875 -8.503906 -8.878906 -8.925781 -8.953125 -9.375 C -9.035156 -9.832031 -9.03125 -10.285156 -8.9375 -10.734375 C -8.84375 -11.191406 -8.648438 -11.625 -8.359375 -12.03125 Z M -2.765625 -13.859375 C -2.941406 -13.992188 -3.132812 -14.039062 -3.34375 -14 C -3.5625 -13.957031 -3.734375 -13.847656 -3.859375 -13.671875 L -6.109375 -10.453125 C -6.242188 -10.265625 -6.289062 -10.066406 -6.25 -9.859375 C -6.21875 -9.648438 -6.113281 -9.476562 -5.9375 -9.34375 L -0.453125 -5.5 C -0.265625 -5.363281 -0.0664062 -5.316406 0.140625 -5.359375 C 0.347656 -5.398438 0.519531 -5.515625 0.65625 -5.703125 L 2.90625 -8.921875 C 3.03125 -9.097656 3.078125 -9.289062 3.046875 -9.5 C 3.015625 -9.707031 2.90625 -9.878906 2.71875 -10.015625 Z M -2.765625 -13.859375 "/></g></g></g><g fill="#ffffff" fill-opacity="1"><g transform="translate(64.390452, 94.366053)"><g><path d="M 1.328125 -1.390625 C 1.242188 -1.304688 1.140625 -1.265625 1.015625 -1.265625 C 0.898438 -1.265625 0.800781 -1.300781 0.71875 -1.375 L -8.609375 -10.296875 C -8.691406 -10.378906 -8.734375 -10.484375 -8.734375 -10.609375 C -8.742188 -10.734375 -8.707031 -10.835938 -8.625 -10.921875 L -3.75 -16.015625 C -3.414062 -16.359375 -3.03125 -16.617188 -2.59375 -16.796875 C -2.164062 -16.984375 -1.722656 -17.082031 -1.265625 -17.09375 C -0.804688 -17.101562 -0.359375 -17.023438 0.078125 -16.859375 C 0.515625 -16.703125 0.910156 -16.457031 1.265625 -16.125 L 6.078125 -11.515625 C 6.441406 -11.160156 6.710938 -10.769531 6.890625 -10.34375 C 7.066406 -9.914062 7.160156 -9.472656 7.171875 -9.015625 C 7.179688 -8.554688 7.101562 -8.101562 6.9375 -7.65625 C 6.78125 -7.21875 6.535156 -6.828125 6.203125 -6.484375 Z M 0.9375 -4.96875 L 4.21875 -8.390625 C 4.363281 -8.546875 4.429688 -8.726562 4.421875 -8.9375 C 4.410156 -9.15625 4.320312 -9.347656 4.15625 -9.515625 L -0.65625 -14.125 C -0.8125 -14.269531 -1 -14.34375 -1.21875 -14.34375 C -1.4375 -14.34375 -1.617188 -14.265625 -1.765625 -14.109375 L -5.046875 -10.6875 Z M 0.9375 -4.96875 "/></g></g></g><g fill="#ffffff" fill-opacity="1"><g transform="translate(77.886639, 80.820563)"><g><path d="M 2.71875 -16.546875 C 2.789062 -16.441406 2.816406 -16.332031 2.796875 -16.21875 C 2.773438 -16.113281 2.71875 -16.019531 2.625 -15.9375 L -0.09375 -13.84375 L 4.96875 -7.28125 L 7.6875 -9.375 C 7.78125 -9.457031 7.882812 -9.488281 8 -9.46875 C 8.125 -9.445312 8.222656 -9.390625 8.296875 -9.296875 L 9.4375 -7.8125 C 9.507812 -7.71875 9.535156 -7.613281 9.515625 -7.5 C 9.503906 -7.382812 9.453125 -7.285156 9.359375 -7.203125 L 1.75 -1.34375 C 1.65625 -1.269531 1.546875 -1.238281 1.421875 -1.25 C 1.304688 -1.269531 1.210938 -1.328125 1.140625 -1.421875 L 0 -2.90625 C -0.0703125 -3 -0.0976562 -3.101562 -0.078125 -3.21875 C -0.0664062 -3.34375 -0.015625 -3.441406 0.078125 -3.515625 L 2.78125 -5.609375 L -2.28125 -12.171875 L -4.984375 -10.078125 C -5.078125 -10.003906 -5.179688 -9.972656 -5.296875 -9.984375 C -5.410156 -9.992188 -5.503906 -10.050781 -5.578125 -10.15625 L -6.734375 -11.65625 C -6.804688 -11.738281 -6.832031 -11.84375 -6.8125 -11.96875 C -6.800781 -12.09375 -6.75 -12.191406 -6.65625 -12.265625 L 0.953125 -18.125 C 1.046875 -18.207031 1.148438 -18.234375 1.265625 -18.203125 C 1.390625 -18.179688 1.488281 -18.128906 1.5625 -18.046875 Z M 2.71875 -16.546875 "/></g></g></g><g fill="#ffffff" fill-opacity="1"><g transform="translate(93.26812, 69.461099)"><g><path d="M 2.078125 -16.390625 C 2.015625 -16.492188 2 -16.601562 2.03125 -16.71875 C 2.0625 -16.84375 2.132812 -16.9375 2.25 -17 L 3.890625 -17.90625 C 3.992188 -17.957031 4.101562 -17.96875 4.21875 -17.9375 C 4.34375 -17.90625 4.4375 -17.835938 4.5 -17.734375 L 10.734375 -6.453125 C 10.796875 -6.347656 10.804688 -6.234375 10.765625 -6.109375 C 10.734375 -5.984375 10.664062 -5.894531 10.5625 -5.84375 L 8.921875 -4.9375 C 8.804688 -4.875 8.691406 -4.859375 8.578125 -4.890625 C 8.460938 -4.929688 8.375 -5.003906 8.3125 -5.109375 L 6.046875 -9.21875 L -1.1875 -10.875 L 3.484375 -2.4375 C 3.546875 -2.332031 3.5625 -2.21875 3.53125 -2.09375 C 3.5 -1.976562 3.429688 -1.894531 3.328125 -1.84375 L 1.6875 -0.9375 C 1.582031 -0.875 1.46875 -0.859375 1.34375 -0.890625 C 1.226562 -0.929688 1.140625 -1.003906 1.078125 -1.109375 L -5.15625 -12.390625 C -5.21875 -12.492188 -5.226562 -12.601562 -5.1875 -12.71875 C -5.15625 -12.84375 -5.085938 -12.9375 -4.984375 -13 L -3.34375 -13.90625 C -3.238281 -13.957031 -3.109375 -13.992188 -2.953125 -14.015625 C -2.796875 -14.035156 -2.65625 -14.03125 -2.53125 -14 L 4.25 -12.453125 Z M 2.078125 -16.390625 "/></g></g></g><g fill="#ffffff" fill-opacity="1"><g transform="translate(110.184341, 60.546559)"><g><path d="M 3.546875 -16 C 3.660156 -16.039062 3.785156 -16.046875 3.921875 -16.015625 C 4.054688 -15.984375 4.160156 -15.921875 4.234375 -15.828125 L 9.453125 -10.078125 C 9.523438 -10.003906 9.601562 -9.894531 9.6875 -9.75 C 9.769531 -9.601562 9.832031 -9.472656 9.875 -9.359375 L 11.578125 -4.75 C 11.617188 -4.644531 11.613281 -4.535156 11.5625 -4.421875 C 11.507812 -4.304688 11.429688 -4.226562 11.328125 -4.1875 L 9.5625 -3.53125 C 9.4375 -3.488281 9.316406 -3.492188 9.203125 -3.546875 C 9.097656 -3.597656 9.023438 -3.675781 8.984375 -3.78125 L 8.1875 -5.953125 L 3.015625 -4.046875 L 3.8125 -1.875 C 3.851562 -1.769531 3.847656 -1.660156 3.796875 -1.546875 C 3.753906 -1.429688 3.675781 -1.351562 3.5625 -1.3125 L 1.796875 -0.671875 C 1.691406 -0.628906 1.582031 -0.632812 1.46875 -0.6875 C 1.351562 -0.738281 1.273438 -0.816406 1.234375 -0.921875 L -0.46875 -5.53125 C -0.507812 -5.644531 -0.539062 -5.785156 -0.5625 -5.953125 C -0.582031 -6.117188 -0.597656 -6.253906 -0.609375 -6.359375 L -0.40625 -14.109375 C -0.394531 -14.234375 -0.347656 -14.351562 -0.265625 -14.46875 C -0.191406 -14.582031 -0.09375 -14.660156 0.03125 -14.703125 Z M 2.171875 -6.65625 L 7.140625 -8.5 L 3.140625 -12.921875 L 2.3125 -12.609375 Z M 2.171875 -6.65625 "/></g></g></g><g fill="#ffffff" fill-opacity="1"><g transform="translate(128.25053, 54.281367)"><g/></g></g><g fill="#ffffff" fill-opacity="1"><g transform="translate(147.033545, 50.806647)"><g><path d="M 1.921875 -0.09375 C 1.804688 -0.09375 1.703125 -0.132812 1.609375 -0.21875 C 1.515625 -0.300781 1.46875 -0.398438 1.46875 -0.515625 L 0.796875 -13.40625 C 0.785156 -13.519531 0.820312 -13.625 0.90625 -13.71875 C 0.988281 -13.8125 1.085938 -13.859375 1.203125 -13.859375 L 8.234375 -14.234375 C 8.710938 -14.253906 9.171875 -14.179688 9.609375 -14.015625 C 10.054688 -13.859375 10.445312 -13.625 10.78125 -13.3125 C 11.125 -13.007812 11.398438 -12.648438 11.609375 -12.234375 C 11.816406 -11.816406 11.9375 -11.363281 11.96875 -10.875 L 12.3125 -4.21875 C 12.34375 -3.71875 12.273438 -3.25 12.109375 -2.8125 C 11.941406 -2.375 11.703125 -1.984375 11.390625 -1.640625 C 11.085938 -1.304688 10.722656 -1.03125 10.296875 -0.8125 C 9.878906 -0.601562 9.429688 -0.488281 8.953125 -0.46875 Z M 4.09375 -2.96875 L 8.8125 -3.21875 C 9.03125 -3.226562 9.207031 -3.3125 9.34375 -3.46875 C 9.488281 -3.632812 9.554688 -3.832031 9.546875 -4.0625 L 9.203125 -10.71875 C 9.191406 -10.9375 9.101562 -11.117188 8.9375 -11.265625 C 8.78125 -11.421875 8.59375 -11.492188 8.375 -11.484375 L 3.65625 -11.234375 Z M 4.09375 -2.96875 "/></g></g></g><g fill="#ffffff" fill-opacity="1"><g transform="translate(166.145243, 50.198352)"><g><path d="M 10.1875 -12.84375 C 10.3125 -12.832031 10.425781 -12.78125 10.53125 -12.6875 C 10.644531 -12.59375 10.71875 -12.488281 10.75 -12.375 L 12.90625 -4.9375 C 12.9375 -4.820312 12.957031 -4.679688 12.96875 -4.515625 C 12.988281 -4.347656 12.992188 -4.203125 12.984375 -4.078125 L 12.5 0.796875 C 12.488281 0.910156 12.429688 1.007812 12.328125 1.09375 C 12.234375 1.175781 12.128906 1.207031 12.015625 1.1875 L 10.140625 1 C 10.015625 0.988281 9.914062 0.9375 9.84375 0.84375 C 9.769531 0.75 9.738281 0.644531 9.75 0.53125 L 9.96875 -1.765625 L 4.484375 -2.3125 L 4.265625 -0.015625 C 4.253906 0.0976562 4.203125 0.191406 4.109375 0.265625 C 4.015625 0.347656 3.90625 0.382812 3.78125 0.375 L 1.90625 0.1875 C 1.789062 0.175781 1.695312 0.117188 1.625 0.015625 C 1.550781 -0.078125 1.519531 -0.179688 1.53125 -0.296875 L 2.015625 -5.171875 C 2.023438 -5.296875 2.050781 -5.4375 2.09375 -5.59375 C 2.144531 -5.757812 2.191406 -5.894531 2.234375 -6 L 5.828125 -12.859375 C 5.890625 -12.972656 5.976562 -13.0625 6.09375 -13.125 C 6.207031 -13.195312 6.328125 -13.226562 6.453125 -13.21875 Z M 4.875 -5.046875 L 10.140625 -4.515625 L 8.5 -10.25 L 7.609375 -10.34375 Z M 4.875 -5.046875 "/></g></g></g><g fill="#ffffff" fill-opacity="1"><g transform="translate(185.130725, 52.474003)"><g><path d="M 12.015625 2.65625 C 12.046875 2.769531 12.023438 2.859375 11.953125 2.921875 C 11.890625 2.992188 11.800781 3.015625 11.6875 2.984375 L 9.59375 2.453125 C 9.476562 2.421875 9.375 2.351562 9.28125 2.25 C 9.195312 2.144531 9.132812 2.03125 9.09375 1.90625 L 8.140625 -3.59375 L 5.484375 -4.265625 L 4.234375 0.640625 C 4.203125 0.753906 4.132812 0.835938 4.03125 0.890625 C 3.925781 0.953125 3.8125 0.96875 3.6875 0.9375 L 1.859375 0.46875 C 1.753906 0.445312 1.664062 0.382812 1.59375 0.28125 C 1.53125 0.175781 1.515625 0.0664062 1.546875 -0.046875 L 4.734375 -12.546875 C 4.765625 -12.660156 4.832031 -12.75 4.9375 -12.8125 C 5.050781 -12.882812 5.160156 -12.910156 5.265625 -12.890625 L 12.09375 -11.140625 C 12.570312 -11.015625 12.992188 -10.804688 13.359375 -10.515625 C 13.722656 -10.234375 14.019531 -9.894531 14.25 -9.5 C 14.488281 -9.113281 14.644531 -8.6875 14.71875 -8.21875 C 14.800781 -7.757812 14.78125 -7.296875 14.65625 -6.828125 L 14.375 -5.6875 C 14.269531 -5.289062 14.113281 -4.929688 13.90625 -4.609375 C 13.695312 -4.285156 13.441406 -4.003906 13.140625 -3.765625 C 12.835938 -3.535156 12.507812 -3.351562 12.15625 -3.21875 C 11.800781 -3.082031 11.425781 -3.007812 11.03125 -3 Z M 10.734375 -5.796875 C 10.941406 -5.742188 11.140625 -5.769531 11.328125 -5.875 C 11.523438 -5.976562 11.65625 -6.140625 11.71875 -6.359375 L 12 -7.5 C 12.050781 -7.707031 12.019531 -7.90625 11.90625 -8.09375 C 11.789062 -8.289062 11.628906 -8.414062 11.421875 -8.46875 L 6.859375 -9.625 L 6.171875 -6.953125 Z M 10.734375 -5.796875 "/></g></g></g><g fill="#ffffff" fill-opacity="1"><g transform="translate(203.557288, 57.581737)"><g><path d="M 15.75 -5.765625 C 15.707031 -5.648438 15.628906 -5.570312 15.515625 -5.53125 C 15.410156 -5.488281 15.300781 -5.492188 15.1875 -5.546875 L 12.015625 -6.890625 L 8.78125 0.734375 L 11.953125 2.078125 C 12.066406 2.128906 12.144531 2.210938 12.1875 2.328125 C 12.226562 2.441406 12.226562 2.550781 12.1875 2.65625 L 11.453125 4.375 C 11.410156 4.476562 11.332031 4.554688 11.21875 4.609375 C 11.101562 4.660156 10.988281 4.660156 10.875 4.609375 L 2.03125 0.859375 C 1.925781 0.816406 1.847656 0.734375 1.796875 0.609375 C 1.753906 0.492188 1.753906 0.382812 1.796875 0.28125 L 2.53125 -1.4375 C 2.570312 -1.539062 2.648438 -1.613281 2.765625 -1.65625 C 2.890625 -1.707031 3.003906 -1.710938 3.109375 -1.671875 L 6.25 -0.328125 L 9.484375 -7.953125 L 6.34375 -9.296875 C 6.238281 -9.335938 6.160156 -9.410156 6.109375 -9.515625 C 6.054688 -9.628906 6.050781 -9.742188 6.09375 -9.859375 L 6.84375 -11.59375 C 6.882812 -11.695312 6.960938 -11.769531 7.078125 -11.8125 C 7.203125 -11.863281 7.316406 -11.867188 7.421875 -11.828125 L 16.265625 -8.078125 C 16.378906 -8.023438 16.457031 -7.941406 16.5 -7.828125 C 16.539062 -7.710938 16.539062 -7.601562 16.5 -7.5 Z M 15.75 -5.765625 "/></g></g></g><g fill="#ffffff" fill-opacity="1"><g transform="translate(221.004989, 65.405131)"><g><path d="M 14.796875 -7.078125 C 14.898438 -7.015625 14.976562 -6.914062 15.03125 -6.78125 C 15.082031 -6.65625 15.097656 -6.535156 15.078125 -6.421875 L 13.765625 1.21875 C 13.753906 1.320312 13.71875 1.453125 13.65625 1.609375 C 13.59375 1.773438 13.523438 1.910156 13.453125 2.015625 L 10.890625 6.1875 C 10.828125 6.289062 10.734375 6.351562 10.609375 6.375 C 10.484375 6.40625 10.375 6.394531 10.28125 6.34375 L 8.671875 5.34375 C 8.566406 5.28125 8.5 5.1875 8.46875 5.0625 C 8.445312 4.945312 8.46875 4.835938 8.53125 4.734375 L 9.734375 2.765625 L 5.046875 -0.125 L 3.84375 1.84375 C 3.78125 1.945312 3.6875 2.015625 3.5625 2.046875 C 3.445312 2.078125 3.335938 2.0625 3.234375 2 L 1.640625 1.015625 C 1.535156 0.953125 1.46875 0.859375 1.4375 0.734375 C 1.414062 0.617188 1.4375 0.507812 1.5 0.40625 L 4.0625 -3.765625 C 4.132812 -3.867188 4.226562 -3.984375 4.34375 -4.109375 C 4.46875 -4.234375 4.566406 -4.332031 4.640625 -4.40625 L 10.859375 -9.015625 C 10.960938 -9.085938 11.082031 -9.125 11.21875 -9.125 C 11.363281 -9.132812 11.488281 -9.109375 11.59375 -9.046875 Z M 6.59375 -2.40625 L 11.09375 0.375 L 12.109375 -5.484375 L 11.359375 -5.953125 Z M 6.59375 -2.40625 "/></g></g></g><g fill="#ffffff" fill-opacity="1"><g transform="translate(38.732993, 248.730717)"><g><path d="M 12.921875 -4.453125 C 13.085938 -4.535156 13.210938 -4.492188 13.296875 -4.328125 L 17.703125 3.921875 C 17.796875 4.085938 17.757812 4.210938 17.59375 4.296875 L 16.75 4.765625 C 16.582031 4.847656 16.453125 4.804688 16.359375 4.640625 L 12.53125 -2.546875 L 8.46875 -0.390625 L 11.984375 6.1875 C 12.015625 6.257812 12.015625 6.332031 11.984375 6.40625 C 11.960938 6.488281 11.921875 6.546875 11.859375 6.578125 L 11.015625 7.03125 C 10.953125 7.0625 10.878906 7.066406 10.796875 7.046875 C 10.722656 7.035156 10.671875 6.992188 10.640625 6.921875 L 7.125 0.34375 L 1.96875 3.09375 C 1.800781 3.175781 1.675781 3.140625 1.59375 2.984375 L 1.140625 2.15625 C 1.054688 1.988281 1.097656 1.863281 1.265625 1.78125 Z M 12.921875 -4.453125 "/></g></g></g><g fill="#ffffff" fill-opacity="1"><g transform="translate(49.049707, 266.963762)"><g><path d="M 3.453125 -0.28125 L 11.90625 -6.609375 C 11.976562 -6.648438 12.050781 -6.660156 12.125 -6.640625 C 12.207031 -6.628906 12.269531 -6.597656 12.3125 -6.546875 L 12.890625 -5.765625 C 13.003906 -5.617188 12.984375 -5.492188 12.828125 -5.390625 L 4.375 0.9375 C 4.050781 1.164062 3.863281 1.46875 3.8125 1.84375 C 3.757812 2.226562 3.847656 2.578125 4.078125 2.890625 L 6.765625 6.484375 C 6.992188 6.796875 7.296875 6.984375 7.671875 7.046875 C 8.054688 7.109375 8.410156 7.023438 8.734375 6.796875 L 17.1875 0.46875 C 17.34375 0.363281 17.476562 0.382812 17.59375 0.53125 L 18.15625 1.296875 C 18.269531 1.441406 18.25 1.566406 18.09375 1.671875 L 9.640625 8 C 9.304688 8.238281 8.945312 8.40625 8.5625 8.5 C 8.1875 8.59375 7.8125 8.609375 7.4375 8.546875 C 7.070312 8.484375 6.722656 8.359375 6.390625 8.171875 C 6.054688 7.984375 5.769531 7.726562 5.53125 7.40625 L 2.84375 3.8125 C 2.601562 3.488281 2.4375 3.140625 2.34375 2.765625 C 2.257812 2.390625 2.242188 2.015625 2.296875 1.640625 C 2.347656 1.273438 2.46875 0.921875 2.65625 0.578125 C 2.851562 0.242188 3.117188 -0.0390625 3.453125 -0.28125 Z M 3.453125 -0.28125 "/></g></g></g><g fill="#ffffff" fill-opacity="1"><g transform="translate(61.993594, 283.43598)"><g><path d="M 11.5625 -7.953125 L 12.234375 -7.28125 C 12.367188 -7.144531 12.375 -7.007812 12.25 -6.875 L 3.84375 1.640625 L 9.4375 7.15625 C 9.5 7.21875 9.523438 7.289062 9.515625 7.375 C 9.503906 7.457031 9.476562 7.519531 9.4375 7.5625 L 8.765625 8.25 C 8.628906 8.382812 8.492188 8.382812 8.359375 8.25 L 1.890625 1.859375 C 1.835938 1.804688 1.804688 1.742188 1.796875 1.671875 C 1.796875 1.597656 1.828125 1.53125 1.890625 1.46875 L 11.171875 -7.9375 C 11.222656 -8 11.285156 -8.03125 11.359375 -8.03125 C 11.441406 -8.03125 11.507812 -8.003906 11.5625 -7.953125 Z M 11.5625 -7.953125 "/></g></g></g><g fill="#ffffff" fill-opacity="1"><g transform="translate(77.269658, 297.771963)"><g><path d="M 10.25 -9.59375 L 11.015625 -9.03125 C 11.171875 -8.925781 11.191406 -8.796875 11.078125 -8.640625 L 4.0625 1.046875 L 10.421875 5.671875 C 10.484375 5.710938 10.515625 5.769531 10.515625 5.84375 C 10.515625 5.925781 10.5 5.992188 10.46875 6.046875 L 9.90625 6.828125 C 9.789062 6.984375 9.660156 7.007812 9.515625 6.90625 L 2.15625 1.5625 C 2.09375 1.519531 2.050781 1.457031 2.03125 1.375 C 2.019531 1.300781 2.039062 1.226562 2.09375 1.15625 L 9.84375 -9.53125 C 9.894531 -9.601562 9.957031 -9.640625 10.03125 -9.640625 C 10.113281 -9.648438 10.1875 -9.632812 10.25 -9.59375 Z M 10.25 -9.59375 "/></g></g></g><g fill="#ffffff" fill-opacity="1"><g transform="translate(94.529286, 309.648849)"><g/></g></g><g fill="#ffffff" fill-opacity="1"><g transform="translate(113.360875, 318.776671)"><g><path d="M 2.671875 -2.203125 L 2.96875 -3.078125 C 2.988281 -3.140625 3.035156 -3.1875 3.109375 -3.21875 C 3.191406 -3.257812 3.265625 -3.269531 3.328125 -3.25 L 4.25 -2.9375 C 4.3125 -2.914062 4.359375 -2.863281 4.390625 -2.78125 C 4.429688 -2.707031 4.441406 -2.640625 4.421875 -2.578125 L 4.125 -1.703125 C 4 -1.328125 4.019531 -0.96875 4.1875 -0.625 C 4.351562 -0.289062 4.625 -0.0546875 5 0.078125 L 9.25 1.5 C 9.613281 1.625 9.96875 1.601562 10.3125 1.4375 C 10.664062 1.269531 10.90625 1 11.03125 0.625 L 11.609375 -1.0625 C 11.734375 -1.4375 11.707031 -1.796875 11.53125 -2.140625 C 11.351562 -2.484375 11.082031 -2.71875 10.71875 -2.84375 L 6.46875 -4.265625 C 6.082031 -4.398438 5.75 -4.597656 5.46875 -4.859375 C 5.1875 -5.128906 4.957031 -5.425781 4.78125 -5.75 C 4.613281 -6.082031 4.515625 -6.445312 4.484375 -6.84375 C 4.453125 -7.238281 4.5 -7.628906 4.625 -8.015625 L 5.203125 -9.703125 C 5.328125 -10.085938 5.519531 -10.421875 5.78125 -10.703125 C 6.039062 -10.984375 6.34375 -11.207031 6.6875 -11.375 C 7.03125 -11.550781 7.390625 -11.65625 7.765625 -11.6875 C 8.148438 -11.71875 8.535156 -11.664062 8.921875 -11.53125 L 13.171875 -10.109375 C 13.546875 -9.984375 13.875 -9.789062 14.15625 -9.53125 C 14.445312 -9.269531 14.675781 -8.96875 14.84375 -8.625 C 15.019531 -8.28125 15.117188 -7.914062 15.140625 -7.53125 C 15.171875 -7.15625 15.125 -6.773438 15 -6.390625 L 14.703125 -5.515625 C 14.640625 -5.335938 14.519531 -5.28125 14.34375 -5.34375 L 13.4375 -5.640625 C 13.257812 -5.703125 13.203125 -5.820312 13.265625 -6 L 13.5625 -6.875 C 13.6875 -7.25 13.660156 -7.609375 13.484375 -7.953125 C 13.316406 -8.296875 13.050781 -8.53125 12.6875 -8.65625 L 8.4375 -10.078125 C 8.0625 -10.210938 7.703125 -10.191406 7.359375 -10.015625 C 7.015625 -9.847656 6.78125 -9.578125 6.65625 -9.203125 L 6.078125 -7.515625 C 5.960938 -7.140625 5.988281 -6.78125 6.15625 -6.4375 C 6.320312 -6.09375 6.59375 -5.851562 6.96875 -5.71875 L 11.21875 -4.296875 C 11.59375 -4.171875 11.921875 -3.976562 12.203125 -3.71875 C 12.484375 -3.457031 12.710938 -3.15625 12.890625 -2.8125 C 13.066406 -2.476562 13.164062 -2.117188 13.1875 -1.734375 C 13.21875 -1.347656 13.171875 -0.960938 13.046875 -0.578125 L 12.46875 1.109375 C 12.34375 1.492188 12.148438 1.832031 11.890625 2.125 C 11.640625 2.414062 11.34375 2.640625 11 2.796875 C 10.65625 2.960938 10.289062 3.0625 9.90625 3.09375 C 9.519531 3.125 9.140625 3.078125 8.765625 2.953125 L 4.515625 1.53125 C 4.128906 1.394531 3.796875 1.195312 3.515625 0.9375 C 3.234375 0.675781 3.003906 0.378906 2.828125 0.046875 C 2.660156 -0.285156 2.5625 -0.644531 2.53125 -1.03125 C 2.5 -1.425781 2.546875 -1.816406 2.671875 -2.203125 Z M 2.671875 -2.203125 "/></g></g></g><g fill="#ffffff" fill-opacity="1"><g transform="translate(133.371639, 324.977241)"><g><path d="M 6.203125 0.796875 L 8.28125 -10.984375 L 4.21875 -11.6875 C 4.03125 -11.726562 3.953125 -11.84375 3.984375 -12.03125 L 4.15625 -12.984375 C 4.1875 -13.171875 4.296875 -13.242188 4.484375 -13.203125 L 14.09375 -11.515625 C 14.28125 -11.484375 14.359375 -11.375 14.328125 -11.1875 L 14.15625 -10.234375 C 14.125 -10.046875 14.015625 -9.96875 13.828125 -10 L 9.78125 -10.71875 L 7.703125 1.0625 C 7.691406 1.144531 7.648438 1.207031 7.578125 1.25 C 7.515625 1.289062 7.453125 1.304688 7.390625 1.296875 L 6.4375 1.140625 C 6.25 1.097656 6.171875 0.984375 6.203125 0.796875 Z M 6.203125 0.796875 "/></g></g></g><g fill="#ffffff" fill-opacity="1"><g transform="translate(154.087795, 328.094853)"><g><path d="M 9.203125 -13.578125 C 9.285156 -13.578125 9.359375 -13.546875 9.421875 -13.484375 C 9.492188 -13.429688 9.546875 -13.367188 9.578125 -13.296875 L 12.21875 -6.25 C 12.238281 -6.1875 12.253906 -6.097656 12.265625 -5.984375 C 12.285156 -5.878906 12.296875 -5.785156 12.296875 -5.703125 L 12.15625 0 C 12.15625 0.1875 12.0625 0.28125 11.875 0.28125 L 10.9375 0.25 C 10.75 0.25 10.65625 0.15625 10.65625 -0.03125 L 10.75 -3.75 L 3.453125 -3.921875 L 3.359375 -0.203125 C 3.359375 -0.015625 3.265625 0.078125 3.078125 0.078125 L 2.109375 0.046875 C 1.921875 0.046875 1.828125 -0.046875 1.828125 -0.234375 L 1.96875 -5.9375 C 1.96875 -6.019531 1.976562 -6.113281 2 -6.21875 C 2.03125 -6.332031 2.054688 -6.421875 2.078125 -6.484375 L 5.03125 -13.40625 C 5.0625 -13.476562 5.117188 -13.539062 5.203125 -13.59375 C 5.285156 -13.644531 5.363281 -13.664062 5.4375 -13.65625 Z M 10.78125 -5.25 L 10.796875 -5.734375 L 8.421875 -12.0625 L 6.15625 -12.109375 L 3.5 -5.90625 L 3.484375 -5.421875 Z M 10.78125 -5.25 "/></g></g></g><g fill="#ffffff" fill-opacity="1"><g transform="translate(175.037193, 328.058339)"><g><path d="M 10.8125 -11.390625 C 10.832031 -11.203125 10.75 -11.097656 10.5625 -11.078125 L 9.609375 -10.953125 C 9.421875 -10.929688 9.316406 -11.015625 9.296875 -11.203125 L 9.171875 -12.140625 C 9.109375 -12.523438 8.925781 -12.832031 8.625 -13.0625 C 8.332031 -13.289062 7.992188 -13.378906 7.609375 -13.328125 L 3.171875 -12.765625 C 2.773438 -12.710938 2.457031 -12.53125 2.21875 -12.21875 C 1.988281 -11.914062 1.898438 -11.566406 1.953125 -11.171875 L 2.953125 -3.328125 C 3.003906 -2.941406 3.179688 -2.628906 3.484375 -2.390625 C 3.796875 -2.160156 4.148438 -2.070312 4.546875 -2.125 L 8.984375 -2.6875 C 9.367188 -2.738281 9.671875 -2.910156 9.890625 -3.203125 C 10.117188 -3.503906 10.21875 -3.84375 10.1875 -4.21875 L 10.078125 -5.1875 C 10.066406 -5.25 10.082031 -5.3125 10.125 -5.375 C 10.164062 -5.445312 10.226562 -5.488281 10.3125 -5.5 L 11.265625 -5.625 C 11.347656 -5.632812 11.421875 -5.609375 11.484375 -5.546875 C 11.546875 -5.492188 11.582031 -5.4375 11.59375 -5.375 L 11.703125 -4.40625 C 11.753906 -4.019531 11.722656 -3.640625 11.609375 -3.265625 C 11.492188 -2.898438 11.320312 -2.570312 11.09375 -2.28125 C 10.863281 -2 10.582031 -1.753906 10.25 -1.546875 C 9.925781 -1.347656 9.566406 -1.222656 9.171875 -1.171875 L 4.734375 -0.609375 C 4.328125 -0.554688 3.9375 -0.582031 3.5625 -0.6875 C 3.1875 -0.800781 2.851562 -0.96875 2.5625 -1.1875 C 2.28125 -1.414062 2.035156 -1.695312 1.828125 -2.03125 C 1.628906 -2.375 1.503906 -2.742188 1.453125 -3.140625 L 0.453125 -10.984375 C 0.398438 -11.390625 0.425781 -11.773438 0.53125 -12.140625 C 0.644531 -12.515625 0.8125 -12.851562 1.03125 -13.15625 C 1.25 -13.457031 1.523438 -13.707031 1.859375 -13.90625 C 2.203125 -14.101562 2.578125 -14.226562 2.984375 -14.28125 L 7.421875 -14.84375 C 7.816406 -14.894531 8.195312 -14.867188 8.5625 -14.765625 C 8.925781 -14.660156 9.253906 -14.488281 9.546875 -14.25 C 9.847656 -14.019531 10.097656 -13.738281 10.296875 -13.40625 C 10.503906 -13.082031 10.632812 -12.722656 10.6875 -12.328125 Z M 10.8125 -11.390625 "/></g></g></g><g fill="#ffffff" fill-opacity="1"><g transform="translate(195.742358, 324.868615)"><g><path d="M 9.8125 -3.046875 L 5 -7.8125 L 1.640625 -6.84375 L 3.25 -1.21875 C 3.300781 -1.039062 3.238281 -0.925781 3.0625 -0.875 L 2.140625 -0.609375 C 2.078125 -0.585938 2.007812 -0.59375 1.9375 -0.625 C 1.863281 -0.664062 1.816406 -0.722656 1.796875 -0.796875 L -1.84375 -13.515625 C -1.863281 -13.585938 -1.851562 -13.65625 -1.8125 -13.71875 C -1.769531 -13.789062 -1.71875 -13.835938 -1.65625 -13.859375 L -0.734375 -14.125 C -0.554688 -14.175781 -0.441406 -14.113281 -0.390625 -13.9375 L 1.21875 -8.3125 L 4.578125 -9.28125 L 6.140625 -15.84375 C 6.160156 -15.914062 6.203125 -15.984375 6.265625 -16.046875 C 6.328125 -16.117188 6.398438 -16.164062 6.484375 -16.1875 L 7.625 -16.515625 C 7.695312 -16.535156 7.753906 -16.523438 7.796875 -16.484375 C 7.835938 -16.453125 7.84375 -16.398438 7.8125 -16.328125 L 6.078125 -8.90625 L 11.484375 -3.53125 C 11.617188 -3.40625 11.597656 -3.316406 11.421875 -3.265625 L 10.28125 -2.9375 C 10.09375 -2.882812 9.9375 -2.921875 9.8125 -3.046875 Z M 9.8125 -3.046875 "/></g></g></g><g fill="#ffffff" fill-opacity="1"><g transform="translate(215.730596, 318.597669)"><g/></g></g><g fill="#ffffff" fill-opacity="1"><g transform="translate(234.53062, 309.401108)"><g><path d="M 1.375 -1.234375 L -5.875 -12.28125 C -5.914062 -12.34375 -5.925781 -12.414062 -5.90625 -12.5 C -5.882812 -12.582031 -5.847656 -12.640625 -5.796875 -12.671875 L 0.171875 -16.59375 C 0.503906 -16.8125 0.859375 -16.953125 1.234375 -17.015625 C 1.609375 -17.085938 1.984375 -17.085938 2.359375 -17.015625 C 2.734375 -16.941406 3.082031 -16.796875 3.40625 -16.578125 C 3.726562 -16.367188 4 -16.09375 4.21875 -15.75 L 8.5625 -9.140625 C 8.78125 -8.804688 8.925781 -8.445312 9 -8.0625 C 9.070312 -7.675781 9.066406 -7.296875 8.984375 -6.921875 C 8.898438 -6.554688 8.753906 -6.210938 8.546875 -5.890625 C 8.335938 -5.566406 8.066406 -5.296875 7.734375 -5.078125 L 1.765625 -1.15625 C 1.710938 -1.125 1.644531 -1.109375 1.5625 -1.109375 C 1.488281 -1.117188 1.425781 -1.160156 1.375 -1.234375 Z M 1.96875 -3.125 L 6.890625 -6.359375 C 7.210938 -6.566406 7.414062 -6.859375 7.5 -7.234375 C 7.582031 -7.609375 7.515625 -7.960938 7.296875 -8.296875 L 2.953125 -14.90625 C 2.734375 -15.238281 2.4375 -15.441406 2.0625 -15.515625 C 1.6875 -15.585938 1.335938 -15.519531 1.015625 -15.3125 L -3.90625 -12.078125 Z M 1.96875 -3.125 "/></g></g></g><g fill="#ffffff" fill-opacity="1"><g transform="translate(251.747411, 297.46614)"><g><path d="M 1.421875 -1.640625 L -7.40625 -11.484375 C -7.53125 -11.617188 -7.523438 -11.75 -7.390625 -11.875 L -0.421875 -18.140625 C -0.285156 -18.265625 -0.15625 -18.257812 -0.03125 -18.125 L 0.609375 -17.40625 C 0.734375 -17.257812 0.726562 -17.125 0.59375 -17 L -5.46875 -11.546875 L -2.390625 -8.125 L 2.859375 -12.84375 C 2.910156 -12.894531 2.976562 -12.914062 3.0625 -12.90625 C 3.144531 -12.90625 3.207031 -12.878906 3.25 -12.828125 L 3.890625 -12.109375 C 3.941406 -12.054688 3.960938 -11.988281 3.953125 -11.90625 C 3.953125 -11.832031 3.925781 -11.769531 3.875 -11.71875 L -1.375 -7 L 1.703125 -3.578125 L 7.765625 -9.03125 C 7.828125 -9.082031 7.894531 -9.101562 7.96875 -9.09375 C 8.050781 -9.082031 8.113281 -9.054688 8.15625 -9.015625 L 8.796875 -8.28125 C 8.921875 -8.144531 8.914062 -8.015625 8.78125 -7.890625 L 1.8125 -1.625 C 1.675781 -1.5 1.546875 -1.503906 1.421875 -1.640625 Z M 1.421875 -1.640625 "/></g></g></g><g fill="#ffffff" fill-opacity="1"><g transform="translate(266.958672, 283.092082)"><g><path d="M 2.796875 -3.828125 L -4.359375 -6.109375 C -4.441406 -6.128906 -4.53125 -6.160156 -4.625 -6.203125 C -4.71875 -6.253906 -4.796875 -6.300781 -4.859375 -6.34375 L -9.28125 -9.984375 C -9.34375 -10.035156 -9.367188 -10.101562 -9.359375 -10.1875 C -9.359375 -10.269531 -9.335938 -10.332031 -9.296875 -10.375 L -8.6875 -11.125 C -8.570312 -11.269531 -8.445312 -11.285156 -8.3125 -11.171875 L -4.109375 -7.71875 C -4.046875 -7.664062 -3.96875 -7.613281 -3.875 -7.5625 C -3.78125 -7.507812 -3.695312 -7.472656 -3.625 -7.453125 L 2.546875 -5.515625 L 3.984375 -7.265625 L 0.890625 -12.9375 C 0.835938 -13 0.78125 -13.070312 0.71875 -13.15625 C 0.65625 -13.238281 0.59375 -13.304688 0.53125 -13.359375 L -3.671875 -16.8125 C -3.804688 -16.925781 -3.816406 -17.054688 -3.703125 -17.203125 L -3.09375 -17.9375 C -2.96875 -18.082031 -2.835938 -18.097656 -2.703125 -17.984375 L 1.71875 -14.34375 C 1.78125 -14.300781 1.84375 -14.238281 1.90625 -14.15625 C 1.96875 -14.070312 2.023438 -13.992188 2.078125 -13.921875 L 5.6875 -7.34375 C 5.726562 -7.269531 5.742188 -7.1875 5.734375 -7.09375 C 5.722656 -7 5.691406 -6.921875 5.640625 -6.859375 L 3.25 -3.953125 C 3.195312 -3.890625 3.125 -3.84375 3.03125 -3.8125 C 2.945312 -3.789062 2.867188 -3.796875 2.796875 -3.828125 Z M 2.796875 -3.828125 "/></g></g></g><g fill="#ffffff" fill-opacity="1"><g transform="translate(279.835244, 266.593943)"><g><path d="M 0.875 -2 L -10.484375 -8.765625 C -10.648438 -8.859375 -10.6875 -8.984375 -10.59375 -9.140625 L -5.8125 -17.1875 C -5.71875 -17.34375 -5.585938 -17.375 -5.421875 -17.28125 L -4.59375 -16.78125 C -4.4375 -16.6875 -4.40625 -16.5625 -4.5 -16.40625 L -8.65625 -9.40625 L -4.703125 -7.0625 L -1.109375 -13.125 C -1.066406 -13.1875 -1.003906 -13.222656 -0.921875 -13.234375 C -0.835938 -13.242188 -0.769531 -13.234375 -0.71875 -13.203125 L 0.125 -12.71875 C 0.1875 -12.675781 0.222656 -12.613281 0.234375 -12.53125 C 0.253906 -12.457031 0.242188 -12.390625 0.203125 -12.328125 L -3.390625 -6.265625 L 0.5625 -3.921875 L 4.71875 -10.921875 C 4.757812 -10.992188 4.816406 -11.035156 4.890625 -11.046875 C 4.972656 -11.054688 5.039062 -11.046875 5.09375 -11.015625 L 5.9375 -10.515625 C 6.09375 -10.421875 6.125 -10.296875 6.03125 -10.140625 L 1.25 -2.09375 C 1.15625 -1.9375 1.03125 -1.90625 0.875 -2 Z M 0.875 -2 "/></g></g></g><g fill="#ffffff" fill-opacity="1"><g transform="translate(290.088137, 248.35005)"><g><path d="M -11.765625 -7.65625 L -11.40625 -8.53125 C -11.332031 -8.707031 -11.207031 -8.757812 -11.03125 -8.6875 L 0.046875 -4.1875 L 3 -11.46875 C 3.03125 -11.539062 3.082031 -11.585938 3.15625 -11.609375 C 3.238281 -11.628906 3.3125 -11.628906 3.375 -11.609375 L 4.265625 -11.25 C 4.441406 -11.175781 4.492188 -11.054688 4.421875 -10.890625 L 1 -2.46875 C 0.96875 -2.394531 0.914062 -2.34375 0.84375 -2.3125 C 0.78125 -2.28125 0.707031 -2.28125 0.625 -2.3125 L -11.609375 -7.28125 C -11.691406 -7.3125 -11.742188 -7.363281 -11.765625 -7.4375 C -11.796875 -7.507812 -11.796875 -7.582031 -11.765625 -7.65625 Z M -11.765625 -7.65625 "/></g></g></g><g fill="#ffffff" fill-opacity="1"><g transform="translate(297.483221, 228.749266)"><g><path d="M 1.109375 -4.640625 C 1.015625 -4.242188 0.847656 -3.890625 0.609375 -3.578125 C 0.378906 -3.273438 0.109375 -3.023438 -0.203125 -2.828125 C -0.523438 -2.640625 -0.878906 -2.507812 -1.265625 -2.4375 C -1.648438 -2.375 -2.039062 -2.390625 -2.4375 -2.484375 L -10.125 -4.3125 C -10.519531 -4.40625 -10.867188 -4.566406 -11.171875 -4.796875 C -11.484375 -5.035156 -11.738281 -5.3125 -11.9375 -5.625 C -12.144531 -5.945312 -12.28125 -6.296875 -12.34375 -6.671875 C -12.40625 -7.054688 -12.390625 -7.445312 -12.296875 -7.84375 L -11.25 -12.203125 C -11.15625 -12.585938 -10.992188 -12.929688 -10.765625 -13.234375 C -10.546875 -13.546875 -10.269531 -13.800781 -9.9375 -14 C -9.613281 -14.195312 -9.257812 -14.328125 -8.875 -14.390625 C -8.5 -14.460938 -8.113281 -14.453125 -7.71875 -14.359375 L -0.03125 -12.53125 C 0.363281 -12.4375 0.71875 -12.269531 1.03125 -12.03125 C 1.34375 -11.800781 1.59375 -11.523438 1.78125 -11.203125 C 1.976562 -10.878906 2.113281 -10.523438 2.1875 -10.140625 C 2.257812 -9.765625 2.25 -9.382812 2.15625 -9 Z M -10.8125 -7.484375 C -10.90625 -7.097656 -10.847656 -6.738281 -10.640625 -6.40625 C -10.441406 -6.082031 -10.148438 -5.875 -9.765625 -5.78125 L -2.078125 -3.953125 C -1.691406 -3.859375 -1.332031 -3.910156 -1 -4.109375 C -0.675781 -4.316406 -0.46875 -4.613281 -0.375 -5 L 0.671875 -9.359375 C 0.753906 -9.734375 0.695312 -10.082031 0.5 -10.40625 C 0.300781 -10.738281 0.0078125 -10.953125 -0.375 -11.046875 L -8.0625 -12.875 C -8.445312 -12.96875 -8.804688 -12.910156 -9.140625 -12.703125 C -9.472656 -12.503906 -9.679688 -12.21875 -9.765625 -11.84375 Z M -10.8125 -7.484375 "/></g></g></g><g fill="#ffffff" fill-opacity="1"><g transform="translate(301.843379, 208.258595)"><g><path d="M -0.125 -1.859375 L -13.296875 -2.953125 C -13.378906 -2.960938 -13.441406 -3 -13.484375 -3.0625 C -13.535156 -3.132812 -13.5625 -3.203125 -13.5625 -3.265625 L -12.96875 -10.375 C -12.925781 -10.769531 -12.816406 -11.132812 -12.640625 -11.46875 C -12.460938 -11.8125 -12.222656 -12.101562 -11.921875 -12.34375 C -11.628906 -12.59375 -11.300781 -12.773438 -10.9375 -12.890625 C -10.570312 -13.015625 -10.191406 -13.0625 -9.796875 -13.03125 L -8.015625 -12.875 C -7.609375 -12.84375 -7.226562 -12.734375 -6.875 -12.546875 C -6.53125 -12.367188 -6.242188 -12.132812 -6.015625 -11.84375 C -5.785156 -11.5625 -5.601562 -11.238281 -5.46875 -10.875 C -5.34375 -10.507812 -5.300781 -10.128906 -5.34375 -9.734375 L -5.828125 -3.859375 L 0 -3.375 C 0.1875 -3.351562 0.269531 -3.25 0.25 -3.0625 L 0.171875 -2.109375 C 0.171875 -2.046875 0.140625 -1.984375 0.078125 -1.921875 C 0.0234375 -1.867188 -0.0390625 -1.847656 -0.125 -1.859375 Z M -7.34375 -3.984375 L -6.859375 -9.859375 C -6.816406 -10.242188 -6.921875 -10.582031 -7.171875 -10.875 C -7.429688 -11.175781 -7.753906 -11.34375 -8.140625 -11.375 L -9.921875 -11.53125 C -10.304688 -11.5625 -10.644531 -11.445312 -10.9375 -11.1875 C -11.226562 -10.9375 -11.394531 -10.617188 -11.4375 -10.234375 L -11.921875 -4.359375 Z M -7.34375 -3.984375 "/></g></g></g><g fill="#ffffff" fill-opacity="1"><g transform="translate(303.063051, 187.341872)"><g><path d="M -0.421875 -2.140625 L -13.609375 -1.25 C -13.796875 -1.238281 -13.898438 -1.328125 -13.921875 -1.515625 L -14.546875 -10.84375 C -14.554688 -11.03125 -14.46875 -11.128906 -14.28125 -11.140625 L -13.3125 -11.203125 C -13.125 -11.210938 -13.023438 -11.125 -13.015625 -10.9375 L -12.46875 -2.8125 L -7.890625 -3.125 L -8.359375 -10.15625 C -8.367188 -10.226562 -8.34375 -10.296875 -8.28125 -10.359375 C -8.21875 -10.421875 -8.15625 -10.453125 -8.09375 -10.453125 L -7.125 -10.515625 C -7.050781 -10.523438 -6.984375 -10.503906 -6.921875 -10.453125 C -6.867188 -10.398438 -6.835938 -10.335938 -6.828125 -10.265625 L -6.359375 -3.234375 L -1.78125 -3.53125 L -2.328125 -11.65625 C -2.328125 -11.738281 -2.296875 -11.804688 -2.234375 -11.859375 C -2.179688 -11.921875 -2.125 -11.957031 -2.0625 -11.96875 L -1.09375 -12.03125 C -0.90625 -12.039062 -0.804688 -11.953125 -0.796875 -11.765625 L -0.171875 -2.4375 C -0.148438 -2.25 -0.234375 -2.148438 -0.421875 -2.140625 Z M -0.421875 -2.140625 "/></g></g></g><g fill="#ffffff" fill-opacity="1"><g transform="translate(301.136431, 166.506064)"><g><path d="M -2.484375 -9.953125 L -7.640625 -6.140625 L -6.71875 -1.953125 L -1.015625 -3.21875 C -0.828125 -3.257812 -0.710938 -3.1875 -0.671875 -3 L -0.453125 -2.078125 C -0.421875 -1.890625 -0.5 -1.773438 -0.6875 -1.734375 L -13.578125 1.125 C -13.765625 1.164062 -13.875 1.09375 -13.90625 0.90625 L -15.453125 -6.046875 C -15.546875 -6.429688 -15.554688 -6.8125 -15.484375 -7.1875 C -15.410156 -7.5625 -15.269531 -7.910156 -15.0625 -8.234375 C -14.863281 -8.554688 -14.609375 -8.828125 -14.296875 -9.046875 C -13.984375 -9.273438 -13.628906 -9.4375 -13.234375 -9.53125 L -11.484375 -9.90625 C -10.847656 -10.050781 -10.234375 -9.984375 -9.640625 -9.703125 C -9.046875 -9.429688 -8.585938 -9.015625 -8.265625 -8.453125 L -7.9375 -7.828125 L -2.859375 -11.59375 C -2.785156 -11.65625 -2.71875 -11.671875 -2.65625 -11.640625 C -2.601562 -11.617188 -2.566406 -11.570312 -2.546875 -11.5 L -2.3125 -10.421875 C -2.289062 -10.335938 -2.296875 -10.25 -2.328125 -10.15625 C -2.367188 -10.070312 -2.421875 -10.003906 -2.484375 -9.953125 Z M -8.203125 -1.625 L -9.46875 -7.375 C -9.550781 -7.75 -9.757812 -8.039062 -10.09375 -8.25 C -10.425781 -8.457031 -10.78125 -8.519531 -11.15625 -8.4375 L -12.90625 -8.0625 C -13.289062 -7.96875 -13.582031 -7.753906 -13.78125 -7.421875 C -13.976562 -7.097656 -14.035156 -6.75 -13.953125 -6.375 L -12.6875 -0.625 Z M -8.203125 -1.625 "/></g></g></g><g clip-path="url(#205281921f)"><path fill="#ffffff" d="M 115.71875 185.988281 L 139.4375 209.707031 L 136.980469 212.164062 L 110.8125 185.988281 L 136.988281 159.8125 L 139.449219 162.269531 Z M 171.351562 140.175781 L 174.621094 140.996094 L 154.984375 231.792969 L 151.714844 230.96875 Z M 189.34375 159.8125 L 215.519531 185.988281 L 189.34375 212.164062 L 186.886719 209.707031 L 210.605469 185.988281 L 186.886719 162.269531 Z M 189.34375 159.8125 " fill-opacity="1" fill-rule="nonzero"/></g></svg>